<mxfile host="65bd71144e">
    <diagram id="6JaHPTwQ3IZ62b7ubyOW" name="Elements of the filter-panel">
        <mxGraphModel dx="2370" dy="1175" grid="1" gridSize="10" guides="1" tooltips="1" connect="1" arrows="1" fold="1" page="1" pageScale="1" pageWidth="827" pageHeight="1169" math="0" shadow="0">
            <root>
                <mxCell id="0"/>
                <mxCell id="1" parent="0"/>
                <mxCell id="wHSzEoxw40m1ypYUr5Cm-58" style="rounded=0;orthogonalLoop=1;jettySize=auto;html=1;exitX=0;exitY=0.5;exitDx=0;exitDy=0;fontFamily=Helvetica;fontSize=11;endArrow=block;endFill=1;entryX=1;entryY=0.5;entryDx=0;entryDy=0;" parent="1" source="wHSzEoxw40m1ypYUr5Cm-60" target="wHSzEoxw40m1ypYUr5Cm-48" edge="1">
                    <mxGeometry relative="1" as="geometry">
                        <mxPoint x="-605" y="1140" as="targetPoint"/>
                    </mxGeometry>
                </mxCell>
                <mxCell id="wHSzEoxw40m1ypYUr5Cm-4" value="initialized when new filter added" style="rounded=0;whiteSpace=wrap;html=1;fontFamily=Helvetica;fontSize=12;labelPosition=center;verticalLabelPosition=top;align=center;verticalAlign=bottom;" parent="1" vertex="1">
                    <mxGeometry x="330" y="80" width="230" height="160" as="geometry"/>
                </mxCell>
                <mxCell id="wHSzEoxw40m1ypYUr5Cm-5" value="Initialized when data is loaded in DDL" style="rounded=0;whiteSpace=wrap;html=1;fontFamily=Helvetica;fontSize=12;labelPosition=center;verticalLabelPosition=top;align=center;verticalAlign=bottom;" parent="1" vertex="1">
                    <mxGeometry x="-665" y="80" width="955" height="400" as="geometry"/>
                </mxCell>
                <mxCell id="wHSzEoxw40m1ypYUr5Cm-27" value="Initialization&amp;nbsp;" style="text;html=1;strokeColor=none;fillColor=none;align=left;verticalAlign=middle;whiteSpace=wrap;rounded=0;fontSize=22;" parent="1" vertex="1">
                    <mxGeometry x="-800" y="20" width="150" height="30" as="geometry"/>
                </mxCell>
                <mxCell id="wHSzEoxw40m1ypYUr5Cm-34" value="init_filtered_dataset.data.frame" style="rounded=0;orthogonalLoop=1;jettySize=auto;html=1;exitX=1;exitY=0.5;exitDx=0;exitDy=0;entryX=0;entryY=0.5;entryDx=0;entryDy=0;fontSize=12;" parent="1" source="wHSzEoxw40m1ypYUr5Cm-30" target="wHSzEoxw40m1ypYUr5Cm-32" edge="1">
                    <mxGeometry relative="1" as="geometry"/>
                </mxCell>
                <mxCell id="wHSzEoxw40m1ypYUr5Cm-35" value="init_filtered_dataset.MAE" style="edgeStyle=none;rounded=0;orthogonalLoop=1;jettySize=auto;html=1;exitX=1;exitY=0.5;exitDx=0;exitDy=0;entryX=0;entryY=0.5;entryDx=0;entryDy=0;fontSize=12;" parent="1" source="wHSzEoxw40m1ypYUr5Cm-30" target="wHSzEoxw40m1ypYUr5Cm-33" edge="1">
                    <mxGeometry relative="1" as="geometry"/>
                </mxCell>
                <mxCell id="wHSzEoxw40m1ypYUr5Cm-30" value="FilterData" style="rounded=0;whiteSpace=wrap;html=1;fontFamily=Helvetica;fontSize=12;strokeColor=#B3B3B3;" parent="1" vertex="1">
                    <mxGeometry x="-620" y="170" width="120" height="60" as="geometry"/>
                </mxCell>
                <mxCell id="wHSzEoxw40m1ypYUr5Cm-37" value="init_filter_states.data.frame" style="edgeStyle=none;rounded=0;orthogonalLoop=1;jettySize=auto;html=1;exitX=1;exitY=0.5;exitDx=0;exitDy=0;entryX=0;entryY=0.5;entryDx=0;entryDy=0;fontSize=12;" parent="1" source="wHSzEoxw40m1ypYUr5Cm-32" target="wHSzEoxw40m1ypYUr5Cm-36" edge="1">
                    <mxGeometry relative="1" as="geometry"/>
                </mxCell>
                <mxCell id="wHSzEoxw40m1ypYUr5Cm-32" value="DataframeFilteredDataset" style="rounded=0;whiteSpace=wrap;html=1;fontFamily=Helvetica;fontSize=12;strokeColor=#B3B3B3;" parent="1" vertex="1">
                    <mxGeometry x="-302.5" y="120" width="120" height="60" as="geometry"/>
                </mxCell>
                <mxCell id="wHSzEoxw40m1ypYUr5Cm-39" value="init_filter_states.MAE" style="edgeStyle=none;rounded=0;orthogonalLoop=1;jettySize=auto;html=1;exitX=1;exitY=0.5;exitDx=0;exitDy=0;entryX=0;entryY=0.5;entryDx=0;entryDy=0;fontSize=12;" parent="1" source="wHSzEoxw40m1ypYUr5Cm-33" target="wHSzEoxw40m1ypYUr5Cm-38" edge="1">
                    <mxGeometry relative="1" as="geometry"/>
                </mxCell>
                <mxCell id="wHSzEoxw40m1ypYUr5Cm-41" value="init_filter_states.SummarizedExperiment" style="edgeStyle=none;rounded=0;orthogonalLoop=1;jettySize=auto;html=1;exitX=1;exitY=0.5;exitDx=0;exitDy=0;entryX=0;entryY=0.5;entryDx=0;entryDy=0;fontSize=12;" parent="1" source="wHSzEoxw40m1ypYUr5Cm-33" target="wHSzEoxw40m1ypYUr5Cm-40" edge="1">
                    <mxGeometry relative="1" as="geometry"/>
                </mxCell>
                <mxCell id="wHSzEoxw40m1ypYUr5Cm-43" value="init_filter_states.matrix" style="edgeStyle=none;rounded=0;orthogonalLoop=1;jettySize=auto;html=1;exitX=1;exitY=0.5;exitDx=0;exitDy=0;entryX=0;entryY=0.5;entryDx=0;entryDy=0;fontSize=12;" parent="1" source="wHSzEoxw40m1ypYUr5Cm-33" target="wHSzEoxw40m1ypYUr5Cm-42" edge="1">
                    <mxGeometry relative="1" as="geometry"/>
                </mxCell>
                <mxCell id="wHSzEoxw40m1ypYUr5Cm-33" value="MAEFilteredDataset" style="rounded=0;whiteSpace=wrap;html=1;fontFamily=Helvetica;fontSize=12;strokeColor=#B3B3B3;" parent="1" vertex="1">
                    <mxGeometry x="-302.5" y="217.5" width="120" height="60" as="geometry"/>
                </mxCell>
                <mxCell id="wHSzEoxw40m1ypYUr5Cm-45" value="init_filter_state.&amp;lt;type&amp;gt;" style="edgeStyle=none;rounded=0;orthogonalLoop=1;jettySize=auto;html=1;exitX=1;exitY=0.5;exitDx=0;exitDy=0;entryX=0;entryY=0.5;entryDx=0;entryDy=0;fontSize=12;" parent="1" source="wHSzEoxw40m1ypYUr5Cm-36" target="wHSzEoxw40m1ypYUr5Cm-44" edge="1">
                    <mxGeometry relative="1" as="geometry"/>
                </mxCell>
                <mxCell id="wHSzEoxw40m1ypYUr5Cm-36" value="DFFilterStates" style="rounded=0;whiteSpace=wrap;html=1;fontFamily=Helvetica;fontSize=12;strokeColor=#B3B3B3;" parent="1" vertex="1">
                    <mxGeometry x="70" y="120" width="120" height="60" as="geometry"/>
                </mxCell>
                <mxCell id="wHSzEoxw40m1ypYUr5Cm-38" value="MAEFilterStates" style="rounded=0;whiteSpace=wrap;html=1;fontFamily=Helvetica;fontSize=12;strokeColor=#B3B3B3;" parent="1" vertex="1">
                    <mxGeometry x="70" y="217.5" width="120" height="60" as="geometry"/>
                </mxCell>
                <mxCell id="wHSzEoxw40m1ypYUr5Cm-40" value="SEFilterStates" style="rounded=0;whiteSpace=wrap;html=1;fontFamily=Helvetica;fontSize=12;strokeColor=#B3B3B3;" parent="1" vertex="1">
                    <mxGeometry x="70" y="300" width="120" height="60" as="geometry"/>
                </mxCell>
                <mxCell id="wHSzEoxw40m1ypYUr5Cm-42" value="MatrixFilterStates" style="rounded=0;whiteSpace=wrap;html=1;fontFamily=Helvetica;fontSize=12;strokeColor=#B3B3B3;" parent="1" vertex="1">
                    <mxGeometry x="70" y="380" width="120" height="60" as="geometry"/>
                </mxCell>
                <mxCell id="wHSzEoxw40m1ypYUr5Cm-44" value="&amp;lt;type&amp;gt;FilterState" style="rounded=0;whiteSpace=wrap;html=1;fontFamily=Helvetica;fontSize=12;strokeColor=#B3B3B3;" parent="1" vertex="1">
                    <mxGeometry x="385" y="120" width="120" height="60" as="geometry"/>
                </mxCell>
                <mxCell id="ju57OrP_gF10ks3lbw62-71" value="init_filtered_data" style="edgeStyle=none;rounded=0;orthogonalLoop=1;jettySize=auto;html=1;exitX=1;exitY=0.5;exitDx=0;exitDy=0;entryX=0;entryY=0.5;entryDx=0;entryDy=0;dashed=1;strokeColor=#B3B3B3;fontFamily=Helvetica;fontSize=11;fontColor=#6B6B6B;" parent="1" source="wHSzEoxw40m1ypYUr5Cm-46" target="wHSzEoxw40m1ypYUr5Cm-30" edge="1">
                    <mxGeometry relative="1" as="geometry"/>
                </mxCell>
                <mxCell id="wHSzEoxw40m1ypYUr5Cm-46" value="named list &lt;br&gt;of datasets" style="rounded=0;whiteSpace=wrap;html=1;fontFamily=Helvetica;fontSize=12;strokeColor=#B3B3B3;" parent="1" vertex="1">
                    <mxGeometry x="-827" y="170" width="120" height="60" as="geometry"/>
                </mxCell>
                <mxCell id="wHSzEoxw40m1ypYUr5Cm-47" value="Code creation" style="text;html=1;strokeColor=none;fillColor=none;align=left;verticalAlign=middle;whiteSpace=wrap;rounded=0;fontSize=22;" parent="1" vertex="1">
                    <mxGeometry x="-800" y="570" width="160" height="30" as="geometry"/>
                </mxCell>
                <mxCell id="wHSzEoxw40m1ypYUr5Cm-48" value="CDISCFilteredData" style="rounded=0;whiteSpace=wrap;html=1;fillColor=#f8cecc;strokeColor=#b85450;" parent="1" vertex="1">
                    <mxGeometry x="-810" y="1081" width="120" height="60" as="geometry"/>
                </mxCell>
                <mxCell id="wHSzEoxw40m1ypYUr5Cm-49" style="rounded=0;orthogonalLoop=1;jettySize=auto;html=1;exitX=0;exitY=0.5;exitDx=0;exitDy=0;entryX=1;entryY=0.5;entryDx=0;entryDy=0;fontFamily=Helvetica;fontSize=11;endArrow=block;endFill=1;" parent="1" source="wHSzEoxw40m1ypYUr5Cm-51" target="wHSzEoxw40m1ypYUr5Cm-48" edge="1">
                    <mxGeometry relative="1" as="geometry"/>
                </mxCell>
                <mxCell id="wHSzEoxw40m1ypYUr5Cm-50" value="&lt;div style=&quot;text-align: left&quot;&gt;&lt;br&gt;&lt;/div&gt;" style="edgeLabel;html=1;align=center;verticalAlign=middle;resizable=0;points=[];" parent="wHSzEoxw40m1ypYUr5Cm-49" connectable="0" vertex="1">
                    <mxGeometry x="-0.4922" y="-3" relative="1" as="geometry">
                        <mxPoint as="offset"/>
                    </mxGeometry>
                </mxCell>
                <mxCell id="wHSzEoxw40m1ypYUr5Cm-51" value="DataframeFilteredDataset" style="rounded=0;whiteSpace=wrap;html=1;fillColor=#e1d5e7;strokeColor=#9673a6;fontSize=14;" parent="1" vertex="1">
                    <mxGeometry x="-390" y="899" width="145" height="60" as="geometry"/>
                </mxCell>
                <mxCell id="wHSzEoxw40m1ypYUr5Cm-52" value="ADSL &amp;lt;- filter(&lt;br style=&quot;font-size: 14px;&quot;&gt;&amp;nbsp; ADSL, &lt;br style=&quot;font-size: 14px;&quot;&gt;&amp;nbsp; SEX == &lt;font color=&quot;#006600&quot; style=&quot;font-size: 14px;&quot;&gt;&quot;M&quot;&lt;/font&gt; &amp;amp; AGE &amp;gt;= &lt;font color=&quot;#1900ff&quot; style=&quot;font-size: 14px;&quot;&gt;20&lt;/font&gt; &amp;amp; AGE &amp;lt;= &lt;font color=&quot;#1900ff&quot; style=&quot;font-size: 14px;&quot;&gt;60&lt;/font&gt;&lt;br style=&quot;font-size: 14px;&quot;&gt;)" style="edgeStyle=none;rounded=0;orthogonalLoop=1;jettySize=auto;html=1;exitX=0;exitY=0.5;exitDx=0;exitDy=0;entryX=1;entryY=0.5;entryDx=0;entryDy=0;align=left;fontFamily=Courier New;fontSize=14;" parent="1" source="wHSzEoxw40m1ypYUr5Cm-53" target="wHSzEoxw40m1ypYUr5Cm-51" edge="1">
                    <mxGeometry x="0.8485" relative="1" as="geometry">
                        <mxPoint as="offset"/>
                    </mxGeometry>
                </mxCell>
                <mxCell id="wHSzEoxw40m1ypYUr5Cm-53" value="DFFilterStates&lt;br style=&quot;font-size: 14px;&quot;&gt;&lt;i style=&quot;font-size: 14px;&quot;&gt;&lt;font style=&quot;font-size: 14px;&quot; color=&quot;#6e6e6e&quot;&gt;(dplyr::filter)&lt;/font&gt;&lt;/i&gt;" style="rounded=0;whiteSpace=wrap;html=1;fillColor=#dae8fc;strokeColor=#6c8ebf;fontSize=14;" parent="1" vertex="1">
                    <mxGeometry x="85" y="899" width="120" height="60" as="geometry"/>
                </mxCell>
                <mxCell id="wHSzEoxw40m1ypYUr5Cm-54" value="ChoiceFilterState" style="rounded=0;whiteSpace=wrap;html=1;fillColor=#d5e8d4;strokeColor=#82b366;fontSize=14;" parent="1" vertex="1">
                    <mxGeometry x="515" y="860" width="150" height="60" as="geometry"/>
                </mxCell>
                <mxCell id="wHSzEoxw40m1ypYUr5Cm-55" style="edgeStyle=none;rounded=0;orthogonalLoop=1;jettySize=auto;html=1;exitX=0;exitY=0.5;exitDx=0;exitDy=0;fontFamily=Helvetica;fontSize=11;endArrow=block;endFill=1;entryX=1;entryY=0.5;entryDx=0;entryDy=0;" parent="1" source="wHSzEoxw40m1ypYUr5Cm-57" target="wHSzEoxw40m1ypYUr5Cm-48" edge="1">
                    <mxGeometry relative="1" as="geometry">
                        <mxPoint x="-605" y="1140" as="targetPoint"/>
                    </mxGeometry>
                </mxCell>
                <mxCell id="wHSzEoxw40m1ypYUr5Cm-56" value="&lt;div style=&quot;font-size: 14px;&quot;&gt;&lt;font style=&quot;font-size: 14px;&quot;&gt;ADSL &amp;lt;- ...&lt;br style=&quot;font-size: 14px;&quot;&gt;&lt;br&gt;&lt;/font&gt;&lt;/div&gt;&lt;div style=&quot;font-size: 14px;&quot;&gt;&lt;font style=&quot;font-size: 14px;&quot;&gt;&lt;br&gt;&lt;/font&gt;&lt;/div&gt;&lt;div style=&quot;font-size: 14px;&quot;&gt;&lt;font style=&quot;font-size: 14px;&quot;&gt;ADTTE &amp;lt;- ...&lt;/font&gt;&lt;/div&gt;ADTTE &amp;lt;- dplyr::inner_join(&lt;span style=&quot;font-size: 14px;&quot;&gt;&lt;br&gt;&lt;/span&gt;&lt;span style=&quot;font-size: 14px;&quot;&gt;&lt;div style=&quot;font-size: 14px;&quot;&gt;&amp;nbsp; ADTTE_FILTERED_ALONE,&lt;/div&gt;&lt;/span&gt;&lt;span style=&quot;font-size: 14px;&quot;&gt;&lt;div style=&quot;font-size: 14px;&quot;&gt;&amp;nbsp; ADSL_FILTERED,&lt;/div&gt;&lt;/span&gt;&lt;span style=&quot;font-size: 14px;&quot;&gt;&lt;div style=&quot;font-size: 14px;&quot;&gt;&amp;nbsp; by = c(&lt;font color=&quot;#006600&quot; style=&quot;font-size: 14px;&quot;&gt;&quot;STUDYID&quot;&lt;/font&gt;,&lt;font color=&quot;#006600&quot; style=&quot;font-size: 14px;&quot;&gt;&amp;nbsp;&quot;USUBJID&quot;&lt;/font&gt;)&lt;/div&gt;&lt;/span&gt;&lt;span style=&quot;font-size: 14px;&quot;&gt;&lt;div style=&quot;font-size: 14px;&quot;&gt;)&lt;br style=&quot;font-size: 14px;&quot;&gt;&lt;br&gt;&lt;br style=&quot;font-size: 14px;&quot;&gt;MAE &amp;lt;- ...&lt;/div&gt;&lt;/span&gt;" style="edgeLabel;html=1;align=left;verticalAlign=middle;resizable=0;points=[];fontFamily=Courier New;fontSize=14;" parent="wHSzEoxw40m1ypYUr5Cm-55" connectable="0" vertex="1">
                    <mxGeometry x="0.0545" y="-1" relative="1" as="geometry">
                        <mxPoint x="-117" y="1" as="offset"/>
                    </mxGeometry>
                </mxCell>
                <mxCell id="wHSzEoxw40m1ypYUr5Cm-57" value="DataframeFilteredDataset" style="rounded=0;whiteSpace=wrap;html=1;fillColor=#e1d5e7;strokeColor=#9673a6;fontSize=14;" parent="1" vertex="1">
                    <mxGeometry x="-390" y="1081" width="145" height="60" as="geometry"/>
                </mxCell>
                <mxCell id="wHSzEoxw40m1ypYUr5Cm-60" value="MAEFilteredDataset" style="rounded=0;whiteSpace=wrap;html=1;fillColor=#e1d5e7;strokeColor=#9673a6;fontSize=14;" parent="1" vertex="1">
                    <mxGeometry x="-390" y="1230" width="145" height="60" as="geometry"/>
                </mxCell>
                <mxCell id="wHSzEoxw40m1ypYUr5Cm-61" value="&lt;span style=&quot;color: rgb(0, 0, 0); font-size: 14px; font-style: normal; font-weight: 400; letter-spacing: normal; text-indent: 0px; text-transform: none; word-spacing: 0px; background-color: rgb(255, 255, 255); display: inline; float: none;&quot;&gt;ADTTE &amp;lt;- filter(&lt;/span&gt;&lt;br style=&quot;color: rgb(0, 0, 0); font-size: 14px; font-style: normal; font-weight: 400; letter-spacing: normal; text-indent: 0px; text-transform: none; word-spacing: 0px;&quot;&gt;&lt;span style=&quot;color: rgb(0, 0, 0); font-size: 14px; font-style: normal; font-weight: 400; letter-spacing: normal; text-indent: 0px; text-transform: none; word-spacing: 0px; background-color: rgb(255, 255, 255); display: inline; float: none;&quot;&gt;&amp;nbsp; ADTTE,&amp;nbsp;&lt;/span&gt;&lt;br style=&quot;color: rgb(0, 0, 0); font-size: 14px; font-style: normal; font-weight: 400; letter-spacing: normal; text-indent: 0px; text-transform: none; word-spacing: 0px;&quot;&gt;&lt;span style=&quot;color: rgb(0, 0, 0); font-size: 14px; font-style: normal; font-weight: 400; letter-spacing: normal; text-indent: 0px; text-transform: none; word-spacing: 0px; background-color: rgb(255, 255, 255); display: inline; float: none;&quot;&gt;&amp;nbsp; PARAMCD ==&lt;span style=&quot;font-size: 14px;&quot;&gt;&amp;nbsp;&lt;/span&gt;&lt;/span&gt;&lt;font color=&quot;#006600&quot; style=&quot;font-size: 14px; font-style: normal; font-weight: 400; letter-spacing: normal; text-indent: 0px; text-transform: none; word-spacing: 0px;&quot;&gt;&quot;OS&quot;&lt;/font&gt;&lt;br style=&quot;color: rgb(0, 0, 0); font-size: 14px; font-style: normal; font-weight: 400; letter-spacing: normal; text-indent: 0px; text-transform: none; word-spacing: 0px;&quot;&gt;&lt;span style=&quot;color: rgb(0, 0, 0); font-size: 14px; font-style: normal; font-weight: 400; letter-spacing: normal; text-indent: 0px; text-transform: none; word-spacing: 0px; background-color: rgb(255, 255, 255); display: inline; float: none;&quot;&gt;)&lt;/span&gt;" style="edgeStyle=none;rounded=0;orthogonalLoop=1;jettySize=auto;html=1;exitX=0;exitY=0.5;exitDx=0;exitDy=0;align=left;fontFamily=Courier New;fontSize=14;" parent="1" source="wHSzEoxw40m1ypYUr5Cm-62" target="wHSzEoxw40m1ypYUr5Cm-57" edge="1">
                    <mxGeometry x="0.6061" y="-1" relative="1" as="geometry">
                        <mxPoint as="offset"/>
                    </mxGeometry>
                </mxCell>
                <mxCell id="wHSzEoxw40m1ypYUr5Cm-62" value="DFFilterStates&lt;br style=&quot;font-size: 14px;&quot;&gt;&lt;i style=&quot;font-size: 14px;&quot;&gt;&lt;font color=&quot;#6e6e6e&quot; style=&quot;font-size: 14px;&quot;&gt;(dplyr::filter)&lt;/font&gt;&lt;/i&gt;" style="rounded=0;whiteSpace=wrap;html=1;fillColor=#dae8fc;strokeColor=#6c8ebf;fontSize=14;" parent="1" vertex="1">
                    <mxGeometry x="85" y="1080" width="120" height="60" as="geometry"/>
                </mxCell>
                <mxCell id="wHSzEoxw40m1ypYUr5Cm-63" value="MAE &amp;lt;- subsetByColData(&lt;br&gt;&amp;nbsp; MAE, &lt;br&gt;&amp;nbsp; SEX == &lt;font color=&quot;#1900ff&quot; style=&quot;font-size: 14px;&quot;&gt;&quot;F&quot;&lt;br&gt;&lt;/font&gt;)" style="edgeStyle=none;rounded=0;orthogonalLoop=1;jettySize=auto;html=1;exitX=0;exitY=0.5;exitDx=0;exitDy=0;entryX=1;entryY=0.5;entryDx=0;entryDy=0;endArrow=block;endFill=1;fontFamily=Courier New;fontSize=14;align=left;" parent="1" source="wHSzEoxw40m1ypYUr5Cm-64" target="wHSzEoxw40m1ypYUr5Cm-60" edge="1">
                    <mxGeometry x="0.5455" relative="1" as="geometry">
                        <mxPoint as="offset"/>
                    </mxGeometry>
                </mxCell>
                <mxCell id="wHSzEoxw40m1ypYUr5Cm-64" value="MAEFilterStates&lt;br style=&quot;font-size: 14px;&quot;&gt;&lt;i style=&quot;font-size: 14px;&quot;&gt;&lt;font color=&quot;#6e6e6e&quot; style=&quot;font-size: 14px;&quot;&gt;(subsetByColData)&lt;/font&gt;&lt;/i&gt;" style="rounded=0;whiteSpace=wrap;html=1;fillColor=#dae8fc;strokeColor=#6c8ebf;fontSize=14;" parent="1" vertex="1">
                    <mxGeometry x="85" y="1230" width="120" height="60" as="geometry"/>
                </mxCell>
                <mxCell id="wHSzEoxw40m1ypYUr5Cm-66" value="SEFilterStates&lt;br style=&quot;font-size: 14px;&quot;&gt;&lt;i style=&quot;font-size: 14px;&quot;&gt;&lt;font color=&quot;#6e6e6e&quot; style=&quot;font-size: 14px;&quot;&gt;(subset)&lt;/font&gt;&lt;/i&gt;" style="rounded=0;whiteSpace=wrap;html=1;fillColor=#dae8fc;strokeColor=#6c8ebf;fontSize=14;" parent="1" vertex="1">
                    <mxGeometry x="85" y="1430" width="120" height="60" as="geometry"/>
                </mxCell>
                <mxCell id="wHSzEoxw40m1ypYUr5Cm-67" style="rounded=0;orthogonalLoop=1;jettySize=auto;html=1;exitX=0;exitY=0.5;exitDx=0;exitDy=0;entryX=1;entryY=0.5;entryDx=0;entryDy=0;fontSize=14;" parent="1" source="wHSzEoxw40m1ypYUr5Cm-69" target="wHSzEoxw40m1ypYUr5Cm-53" edge="1">
                    <mxGeometry relative="1" as="geometry">
                        <mxPoint x="405" y="929" as="targetPoint"/>
                    </mxGeometry>
                </mxCell>
                <mxCell id="wHSzEoxw40m1ypYUr5Cm-68" value="&lt;span style=&quot;font-size: 14px; background-color: rgb(248, 249, 250);&quot;&gt;AGE &amp;gt;= &lt;font color=&quot;#1900ff&quot; style=&quot;font-size: 14px;&quot;&gt;20&lt;/font&gt; &amp;amp; AGE &amp;lt;= &lt;font color=&quot;#1900ff&quot; style=&quot;font-size: 14px;&quot;&gt;60&lt;/font&gt;&lt;/span&gt;" style="edgeLabel;html=1;align=center;verticalAlign=middle;resizable=0;points=[];fontFamily=Courier New;fontSize=14;" parent="wHSzEoxw40m1ypYUr5Cm-67" connectable="0" vertex="1">
                    <mxGeometry x="0.0029" y="-1" relative="1" as="geometry">
                        <mxPoint as="offset"/>
                    </mxGeometry>
                </mxCell>
                <mxCell id="wHSzEoxw40m1ypYUr5Cm-69" value="RangeFilterState" style="rounded=0;whiteSpace=wrap;html=1;fillColor=#d5e8d4;strokeColor=#82b366;fontSize=14;" parent="1" vertex="1">
                    <mxGeometry x="515" y="970" width="150" height="60" as="geometry"/>
                </mxCell>
                <mxCell id="wHSzEoxw40m1ypYUr5Cm-70" value="PARAMCD == &lt;font color=&quot;#006600&quot; style=&quot;font-size: 14px;&quot;&gt;&quot;OS&quot;&lt;/font&gt;" style="edgeStyle=none;rounded=0;orthogonalLoop=1;jettySize=auto;html=1;exitX=0;exitY=0.5;exitDx=0;exitDy=0;entryX=1;entryY=0.5;entryDx=0;entryDy=0;fontFamily=Courier New;fontSize=14;" parent="1" source="wHSzEoxw40m1ypYUr5Cm-71" target="wHSzEoxw40m1ypYUr5Cm-62" edge="1">
                    <mxGeometry relative="1" as="geometry">
                        <mxPoint x="405" y="1110" as="targetPoint"/>
                    </mxGeometry>
                </mxCell>
                <mxCell id="wHSzEoxw40m1ypYUr5Cm-71" value="ChoiceFilterState" style="rounded=0;whiteSpace=wrap;html=1;fillColor=#d5e8d4;strokeColor=#82b366;fontSize=14;" parent="1" vertex="1">
                    <mxGeometry x="515" y="1081" width="150" height="60" as="geometry"/>
                </mxCell>
                <mxCell id="wHSzEoxw40m1ypYUr5Cm-72" value="SEX == &lt;font color=&quot;#006600&quot; style=&quot;font-size: 14px;&quot;&gt;&quot;F&quot;&lt;/font&gt;" style="edgeStyle=none;rounded=0;orthogonalLoop=1;jettySize=auto;html=1;exitX=0;exitY=0.5;exitDx=0;exitDy=0;entryX=1;entryY=0.5;entryDx=0;entryDy=0;fontFamily=Courier New;fontSize=14;" parent="1" source="wHSzEoxw40m1ypYUr5Cm-73" target="wHSzEoxw40m1ypYUr5Cm-64" edge="1">
                    <mxGeometry relative="1" as="geometry">
                        <mxPoint x="405" y="1260" as="targetPoint"/>
                    </mxGeometry>
                </mxCell>
                <mxCell id="wHSzEoxw40m1ypYUr5Cm-73" value="ChoiceFilterState" style="rounded=0;whiteSpace=wrap;html=1;fillColor=#d5e8d4;strokeColor=#82b366;fontSize=14;" parent="1" vertex="1">
                    <mxGeometry x="515" y="1231" width="150" height="60" as="geometry"/>
                </mxCell>
                <mxCell id="wHSzEoxw40m1ypYUr5Cm-76" value="SEX == &lt;font color=&quot;#006600&quot; style=&quot;font-size: 14px;&quot;&gt;&quot;F&quot;&lt;/font&gt;" style="endArrow=block;html=1;exitX=0;exitY=0.5;exitDx=0;exitDy=0;entryX=1;entryY=0.5;entryDx=0;entryDy=0;endFill=1;fontFamily=Courier New;fontSize=14;" parent="1" source="wHSzEoxw40m1ypYUr5Cm-54" target="wHSzEoxw40m1ypYUr5Cm-53" edge="1">
                    <mxGeometry width="50" height="50" relative="1" as="geometry">
                        <mxPoint x="726" y="889" as="sourcePoint"/>
                        <mxPoint x="406" y="929" as="targetPoint"/>
                    </mxGeometry>
                </mxCell>
                <mxCell id="wHSzEoxw40m1ypYUr5Cm-87" value="&lt;span style=&quot;color: rgb(0, 0, 0); font-size: 14px; font-style: normal; font-weight: 400; letter-spacing: normal; text-align: left; text-indent: 0px; text-transform: none; word-spacing: 0px; background-color: rgb(255, 255, 255); display: inline; float: none;&quot;&gt;size &amp;gt;= &lt;/span&gt;&lt;span style=&quot;font-size: 14px; font-style: normal; font-weight: 400; letter-spacing: normal; text-align: left; text-indent: 0px; text-transform: none; word-spacing: 0px; background-color: rgb(255, 255, 255); display: inline; float: none;&quot;&gt;&lt;font color=&quot;#1900ff&quot; style=&quot;font-size: 14px;&quot;&gt;8 &lt;/font&gt;&lt;/span&gt;&lt;span style=&quot;color: rgb(0, 0, 0); font-size: 14px; font-style: normal; font-weight: 400; letter-spacing: normal; text-align: left; text-indent: 0px; text-transform: none; word-spacing: 0px; background-color: rgb(255, 255, 255); display: inline; float: none;&quot;&gt;&amp;amp; size &amp;lt;= &lt;/span&gt;&lt;span style=&quot;font-size: 14px; font-style: normal; font-weight: 400; letter-spacing: normal; text-align: left; text-indent: 0px; text-transform: none; word-spacing: 0px; background-color: rgb(255, 255, 255); display: inline; float: none;&quot;&gt;&lt;font color=&quot;#1900ff&quot; style=&quot;font-size: 14px;&quot;&gt;205012&lt;/font&gt;&lt;/span&gt;" style="edgeStyle=none;rounded=0;orthogonalLoop=1;jettySize=auto;html=1;exitX=0;exitY=0.5;exitDx=0;exitDy=0;endArrow=block;endFill=1;fontFamily=Courier New;fontSize=14;entryX=1;entryY=0.25;entryDx=0;entryDy=0;" parent="1" source="wHSzEoxw40m1ypYUr5Cm-88" target="wHSzEoxw40m1ypYUr5Cm-66" edge="1">
                    <mxGeometry x="-0.2367" y="-6" relative="1" as="geometry">
                        <mxPoint x="200" y="1442" as="targetPoint"/>
                        <mxPoint as="offset"/>
                    </mxGeometry>
                </mxCell>
                <mxCell id="wHSzEoxw40m1ypYUr5Cm-88" value="RangeFilterState" style="rounded=0;whiteSpace=wrap;html=1;fillColor=#d5e8d4;strokeColor=#82b366;fontSize=14;" parent="1" vertex="1">
                    <mxGeometry x="515" y="1371" width="150" height="60" as="geometry"/>
                </mxCell>
                <mxCell id="wHSzEoxw40m1ypYUr5Cm-89" style="edgeStyle=none;rounded=0;orthogonalLoop=1;jettySize=auto;html=1;exitX=0;exitY=0.5;exitDx=0;exitDy=0;endArrow=block;endFill=1;entryX=1;entryY=0.75;entryDx=0;entryDy=0;fontSize=14;" parent="1" source="wHSzEoxw40m1ypYUr5Cm-91" target="wHSzEoxw40m1ypYUr5Cm-66" edge="1">
                    <mxGeometry relative="1" as="geometry">
                        <mxPoint x="200" y="1532" as="targetPoint"/>
                    </mxGeometry>
                </mxCell>
                <mxCell id="wHSzEoxw40m1ypYUr5Cm-90" value="&lt;span style=&quot;text-align: left; font-size: 14px;&quot;&gt;TUMOR_TYPE &lt;font color=&quot;#1900ff&quot; style=&quot;font-size: 14px;&quot;&gt;%in% &lt;/font&gt;c(&lt;font color=&quot;#006600&quot; style=&quot;font-size: 14px;&quot;&gt;&quot;METASTATIC&quot;, &quot;PRIMARY&quot;&lt;/font&gt;)&lt;/span&gt;" style="edgeLabel;html=1;align=center;verticalAlign=middle;resizable=0;points=[];fontFamily=Courier New;fontSize=14;" parent="wHSzEoxw40m1ypYUr5Cm-89" connectable="0" vertex="1">
                    <mxGeometry y="1" relative="1" as="geometry">
                        <mxPoint x="-20" y="3" as="offset"/>
                    </mxGeometry>
                </mxCell>
                <mxCell id="wHSzEoxw40m1ypYUr5Cm-91" value="ChoiceFilterState" style="rounded=0;whiteSpace=wrap;html=1;fillColor=#d5e8d4;strokeColor=#82b366;fontSize=14;" parent="1" vertex="1">
                    <mxGeometry x="515" y="1491" width="150" height="60" as="geometry"/>
                </mxCell>
                <mxCell id="wHSzEoxw40m1ypYUr5Cm-92" value="1" style="text;html=1;strokeColor=none;fillColor=none;align=center;verticalAlign=middle;whiteSpace=wrap;rounded=0;fontFamily=Helvetica;fontSize=15;fontColor=#FF0000;" parent="1" vertex="1">
                    <mxGeometry x="-770" y="1061" width="40" height="20" as="geometry"/>
                </mxCell>
                <mxCell id="wHSzEoxw40m1ypYUr5Cm-93" value="2" style="text;html=1;strokeColor=none;fillColor=none;align=center;verticalAlign=middle;whiteSpace=wrap;rounded=0;fontFamily=Helvetica;fontSize=14;fontColor=#FF0000;" parent="1" vertex="1">
                    <mxGeometry x="-337.5" y="879" width="40" height="20" as="geometry"/>
                </mxCell>
                <mxCell id="wHSzEoxw40m1ypYUr5Cm-94" value="3" style="text;html=1;strokeColor=none;fillColor=none;align=center;verticalAlign=middle;whiteSpace=wrap;rounded=0;fontFamily=Helvetica;fontSize=14;fontColor=#FF0000;" parent="1" vertex="1">
                    <mxGeometry x="120" y="879" width="40" height="20" as="geometry"/>
                </mxCell>
                <mxCell id="wHSzEoxw40m1ypYUr5Cm-96" value="4" style="text;html=1;strokeColor=none;fillColor=none;align=center;verticalAlign=middle;whiteSpace=wrap;rounded=0;fontFamily=Helvetica;fontSize=14;fontColor=#FF0000;" parent="1" vertex="1">
                    <mxGeometry x="570" y="840" width="40" height="20" as="geometry"/>
                </mxCell>
                <mxCell id="wHSzEoxw40m1ypYUr5Cm-97" value="5" style="text;html=1;strokeColor=none;fillColor=none;align=center;verticalAlign=middle;whiteSpace=wrap;rounded=0;fontFamily=Helvetica;fontSize=14;fontColor=#FF0000;" parent="1" vertex="1">
                    <mxGeometry x="-337.5" y="1061" width="40" height="20" as="geometry"/>
                </mxCell>
                <mxCell id="wHSzEoxw40m1ypYUr5Cm-98" value="6" style="text;html=1;strokeColor=none;fillColor=none;align=center;verticalAlign=middle;whiteSpace=wrap;rounded=0;fontFamily=Helvetica;fontSize=14;fontColor=#FF0000;" parent="1" vertex="1">
                    <mxGeometry x="-337.5" y="1210" width="40" height="20" as="geometry"/>
                </mxCell>
                <mxCell id="wHSzEoxw40m1ypYUr5Cm-99" value="7" style="text;html=1;strokeColor=none;fillColor=none;align=center;verticalAlign=middle;whiteSpace=wrap;rounded=0;fontFamily=Helvetica;fontSize=14;fontColor=#FF0000;" parent="1" vertex="1">
                    <mxGeometry x="125" y="1210" width="40" height="20" as="geometry"/>
                </mxCell>
                <mxCell id="wHSzEoxw40m1ypYUr5Cm-101" value="8" style="text;html=1;strokeColor=none;fillColor=none;align=center;verticalAlign=middle;whiteSpace=wrap;rounded=0;fontFamily=Helvetica;fontSize=14;fontColor=#FF0000;" parent="1" vertex="1">
                    <mxGeometry x="125" y="1411" width="40" height="20" as="geometry"/>
                </mxCell>
                <mxCell id="wHSzEoxw40m1ypYUr5Cm-103" value="FilteredData" style="rounded=0;whiteSpace=wrap;html=1;fillColor=#f8cecc;strokeColor=#b85450;" parent="1" vertex="1">
                    <mxGeometry x="-800" y="670" width="120" height="60" as="geometry"/>
                </mxCell>
                <mxCell id="CfNpBvvqqnf917XYOSLc-2" style="edgeStyle=orthogonalEdgeStyle;rounded=0;orthogonalLoop=1;jettySize=auto;html=1;exitX=0;exitY=0.5;exitDx=0;exitDy=0;entryX=1;entryY=0.5;entryDx=0;entryDy=0;" parent="1" source="wHSzEoxw40m1ypYUr5Cm-105" target="wHSzEoxw40m1ypYUr5Cm-103" edge="1">
                    <mxGeometry relative="1" as="geometry"/>
                </mxCell>
                <mxCell id="wHSzEoxw40m1ypYUr5Cm-105" value="FilteredDataset&lt;br&gt;&lt;font color=&quot;#6e6e6e&quot; style=&quot;font-size: 11px&quot;&gt;dataname&lt;/font&gt;" style="rounded=0;whiteSpace=wrap;html=1;fillColor=#e1d5e7;strokeColor=#9673a6;" parent="1" vertex="1">
                    <mxGeometry x="-560" y="670" width="120" height="60" as="geometry"/>
                </mxCell>
                <mxCell id="CfNpBvvqqnf917XYOSLc-3" value="combine calls" style="edgeStyle=orthogonalEdgeStyle;rounded=0;orthogonalLoop=1;jettySize=auto;html=1;exitX=0;exitY=0.5;exitDx=0;exitDy=0;entryX=1;entryY=0.5;entryDx=0;entryDy=0;" parent="1" source="wHSzEoxw40m1ypYUr5Cm-107" target="wHSzEoxw40m1ypYUr5Cm-105" edge="1">
                    <mxGeometry relative="1" as="geometry"/>
                </mxCell>
                <mxCell id="wHSzEoxw40m1ypYUr5Cm-107" value="FilterStates&lt;br&gt;&lt;i&gt;&lt;font style=&quot;font-size: 11px&quot; color=&quot;#6e6e6e&quot;&gt;subset function&lt;/font&gt;&lt;/i&gt;" style="rounded=0;whiteSpace=wrap;html=1;fillColor=#dae8fc;strokeColor=#6c8ebf;" parent="1" vertex="1">
                    <mxGeometry x="-302.5" y="670" width="120" height="60" as="geometry"/>
                </mxCell>
                <mxCell id="CfNpBvvqqnf917XYOSLc-5" value="group by `arg`,&lt;br&gt;combine by &amp;amp;" style="edgeStyle=orthogonalEdgeStyle;rounded=0;orthogonalLoop=1;jettySize=auto;html=1;exitX=0;exitY=0.5;exitDx=0;exitDy=0;entryX=1;entryY=0.5;entryDx=0;entryDy=0;" parent="1" source="wHSzEoxw40m1ypYUr5Cm-109" target="wHSzEoxw40m1ypYUr5Cm-107" edge="1">
                    <mxGeometry relative="1" as="geometry">
                        <mxPoint x="-62.5" y="700" as="sourcePoint"/>
                    </mxGeometry>
                </mxCell>
                <mxCell id="wHSzEoxw40m1ypYUr5Cm-109" value="FIlterState&lt;br&gt;&lt;font color=&quot;#6b6b6b&quot;&gt;logical expression&lt;/font&gt;" style="rounded=0;whiteSpace=wrap;html=1;fillColor=#d5e8d4;strokeColor=#82b366;" parent="1" vertex="1">
                    <mxGeometry x="-45" y="670" width="150" height="60" as="geometry"/>
                </mxCell>
                <mxCell id="wHSzEoxw40m1ypYUr5Cm-65" value="&lt;br style=&quot;font-size: 14px;&quot;&gt;MAE[[&lt;font color=&quot;#006600&quot; style=&quot;font-size: 14px;&quot;&gt;&quot;exp1&quot;&lt;/font&gt;]] &amp;lt;- subset(&lt;br style=&quot;font-size: 14px;&quot;&gt;&amp;nbsp; MAE[[&lt;font color=&quot;#006600&quot; style=&quot;font-size: 14px;&quot;&gt;&quot;exp1&quot;&lt;/font&gt;]],&lt;br style=&quot;font-size: 14px;&quot;&gt;&amp;nbsp; subset = size &amp;gt;= &lt;font color=&quot;#1900ff&quot; style=&quot;font-size: 14px;&quot;&gt;8&lt;/font&gt; &amp;amp; size &amp;lt;= &lt;font color=&quot;#1900ff&quot; style=&quot;font-size: 14px;&quot;&gt;205012&lt;/font&gt;, &lt;br style=&quot;font-size: 14px;&quot;&gt;&amp;nbsp; select = TUMOR_TYPE &lt;font color=&quot;#1900ff&quot; style=&quot;font-size: 14px;&quot;&gt;%in%&lt;/font&gt; c(&lt;font color=&quot;#006600&quot; style=&quot;font-size: 14px;&quot;&gt;&quot;METASTATIC&quot;, &quot;PRIMARY&quot;&lt;/font&gt;)&lt;br style=&quot;font-size: 14px;&quot;&gt;)" style="edgeStyle=none;rounded=0;orthogonalLoop=1;jettySize=auto;html=1;exitX=0;exitY=0.5;exitDx=0;exitDy=0;entryX=1;entryY=0.5;entryDx=0;entryDy=0;endArrow=block;endFill=1;align=left;fontFamily=Courier New;fontSize=14;" parent="1" source="wHSzEoxw40m1ypYUr5Cm-66" target="wHSzEoxw40m1ypYUr5Cm-60" edge="1">
                    <mxGeometry x="0.9308" y="109" relative="1" as="geometry">
                        <mxPoint as="offset"/>
                    </mxGeometry>
                </mxCell>
            </root>
        </mxGraphModel>
    </diagram>
</mxfile>